<?xml version="1.0" standalone="no"?>
<!DOCTYPE svg PUBLIC "-//W3C//DTD SVG 20010904//EN"
 "http://www.w3.org/TR/2001/REC-SVG-20010904/DTD/svg10.dtd">
<svg version="1.0" xmlns="http://www.w3.org/2000/svg"
 width="1000.000000pt" height="1000.000000pt" viewBox="0 0 1000.000000 1000.000000"
 preserveAspectRatio="xMidYMid meet">
<metadata>
Created by potrace 1.11, written by Peter Selinger 2001-2013
</metadata>
<g transform="translate(0.000000,1000.000000) scale(0.100000,-0.100000)"
fill="#000000" stroke="none">
<path d="M4717 8074 c-1 -1 -36 -4 -77 -8 -41 -3 -84 -8 -95 -10 -11 -2 -42
-6 -70 -10 -154 -21 -405 -83 -570 -142 -289 -103 -632 -291 -849 -464 -172
-137 -378 -336 -482 -465 -26 -33 -51 -62 -54 -65 -16 -12 -124 -166 -190
-269 -74 -116 -198 -353 -237 -451 -39 -100 -71 -185 -78 -207 -6 -20 -13 -23
-63 -24 -31 0 -73 -2 -92 -4 -19 -2 -61 -6 -92 -9 -95 -10 -292 -55 -401 -92
-428 -147 -794 -433 -1047 -819 -88 -135 -221 -428 -244 -538 -3 -12 -14 -58
-25 -102 -10 -44 -22 -101 -25 -127 -4 -26 -11 -80 -16 -120 -10 -71 -6 -408
4 -458 3 -13 8 -42 11 -65 44 -301 188 -637 385 -895 87 -114 151 -183 283
-304 161 -149 444 -312 678 -389 156 -53 257 -75 441 -97 68 -8 422 -5 478 4
14 2 48 7 75 10 28 4 82 14 120 22 39 9 88 20 110 24 160 33 446 159 610 268
119 79 248 193 315 278 30 38 57 71 60 74 3 3 46 57 95 120 49 63 95 122 102
130 43 53 381 481 438 555 38 50 73 95 78 100 4 6 49 64 98 130 50 66 92 121
94 123 1 2 1 -12 -1 -30 -1 -18 -5 -69 -9 -113 -3 -44 -8 -96 -10 -115 -17
-146 -17 -160 2 -161 10 0 27 -2 38 -4 19 -4 65 -7 255 -21 47 -3 90 -7 97 -9
18 -6 22 4 28 91 3 43 8 95 10 114 2 19 7 64 10 100 3 36 8 83 10 105 2 22 6
72 10 110 3 39 8 88 10 110 2 22 7 72 10 110 4 39 9 81 11 95 2 14 6 79 9 145
3 101 1 129 -17 180 -71 210 -285 336 -497 290 -46 -9 -280 -100 -416 -160
-16 -8 -97 -41 -180 -75 -216 -88 -294 -120 -342 -141 -24 -11 -47 -19 -52
-19 -5 0 14 -57 41 -127 28 -71 60 -153 72 -183 38 -100 26 -96 156 -44 63 26
141 57 173 70 33 13 55 18 50 11 -53 -69 -258 -333 -263 -337 -3 -3 -21 -25
-40 -50 -19 -25 -40 -52 -47 -60 -7 -8 -35 -44 -63 -80 -28 -36 -57 -72 -65
-81 -7 -10 -37 -48 -66 -85 -30 -38 -58 -74 -64 -80 -5 -6 -44 -48 -85 -94
-355 -394 -410 -442 -620 -545 -92 -45 -260 -101 -335 -111 -16 -3 -40 -7 -52
-9 -108 -24 -321 -23 -473 1 -524 83 -975 499 -1111 1026 -23 88 -25 98 -35
203 -59 571 242 1121 754 1378 120 61 258 108 367 126 39 7 80 14 93 17 l22 4
-7 -112 c-11 -183 -5 -489 11 -575 3 -11 7 -44 11 -73 4 -29 9 -62 11 -74 2
-12 7 -37 10 -56 3 -19 11 -59 18 -89 l12 -54 164 209 c90 115 177 227 194
249 17 22 36 47 43 55 7 8 42 53 78 99 63 82 65 86 66 145 0 34 2 79 4 101 2
22 6 69 9 105 3 36 10 90 15 120 6 30 12 66 15 80 15 92 78 319 106 385 5 11
21 52 36 90 43 112 176 365 196 373 4 2 8 8 8 14 0 6 30 52 67 102 275 378
616 652 1043 839 46 21 219 81 297 104 l62 18 265 340 c146 187 266 344 266
348 0 6 -145 7 -153 1z"/>
<path d="M5495 7851 c-66 -85 -149 -192 -185 -236 -36 -45 -74 -94 -85 -109
-11 -16 -26 -34 -33 -41 -16 -18 -8 -22 58 -30 70 -8 106 -14 180 -30 14 -3
34 -7 45 -9 45 -9 155 -39 225 -63 192 -64 319 -124 549 -258 87 -51 350 -258
351 -276 0 -6 -22 -13 -70 -24 -129 -29 -384 -144 -526 -238 -201 -133 -344
-272 -544 -530 -41 -53 -79 -97 -83 -97 -5 0 -6 4 -3 8 3 5 7 30 11 58 12 106
17 143 31 238 8 55 13 101 11 102 -1 2 -25 6 -52 9 -28 3 -61 8 -75 10 -14 2
-50 7 -80 10 -30 3 -90 10 -134 16 -43 6 -79 9 -81 7 -1 -2 -11 -64 -20 -138
-10 -74 -19 -144 -20 -155 -2 -11 -6 -42 -9 -70 -4 -27 -13 -95 -21 -150 -8
-55 -17 -127 -21 -160 -3 -33 -8 -68 -10 -79 -2 -10 -6 -44 -10 -75 -3 -31 -8
-65 -11 -76 -13 -57 -11 -206 3 -256 45 -150 177 -270 335 -305 33 -7 127 -7
167 0 30 6 88 25 137 46 11 5 207 77 435 160 228 83 416 152 418 154 5 6 -9
51 -68 216 -29 80 -55 155 -59 167 l-6 21 -80 -28 c-44 -15 -124 -44 -178 -64
l-98 -35 53 67 c29 37 78 99 109 137 206 253 485 412 808 460 82 12 308 12
361 1 14 -3 49 -10 78 -16 74 -13 220 -64 294 -101 342 -172 575 -462 677
-844 27 -103 39 -263 26 -360 -5 -39 -56 -304 -80 -420 -3 -11 -11 -53 -18
-92 l-14 -73 41 -1 c23 0 48 -2 56 -3 8 -2 74 -6 145 -10 246 -13 351 -34 476
-96 235 -116 418 -344 465 -580 19 -91 22 -128 22 -210 -3 -328 -196 -627
-497 -769 -44 -21 -119 -49 -153 -57 -10 -2 -28 -7 -40 -12 -13 -4 -972 -7
-2132 -7 l-2109 0 -69 -90 c-39 -49 -80 -102 -91 -117 -28 -34 -287 -373 -306
-399 l-14 -21 2359 5 c1297 3 2368 7 2379 10 11 3 42 8 70 12 63 8 180 39 267
70 303 109 586 349 756 642 76 130 149 328 168 453 2 14 8 52 13 85 10 62 7
330 -4 400 -19 121 -93 353 -136 429 -6 11 -23 40 -37 65 -69 126 -185 270
-295 366 -37 33 -74 65 -81 72 -7 6 -51 36 -97 66 -101 65 -226 125 -334 161
l-80 26 0 153 c-1 175 -15 326 -39 405 -3 10 -7 28 -10 42 -9 53 -49 178 -89
275 -173 425 -498 775 -913 983 -95 47 -272 113 -369 136 l-70 17 -72 92
c-103 131 -135 167 -253 285 -395 394 -861 661 -1405 805 l-90 24 -120 -156z"/>
</g>
</svg>
